<?xml version="1.0"?>
<svg xmlns="http://www.w3.org/2000/svg" xmlns:xlink="http://www.w3.org/1999/xlink" version="1.1" id="Capa_1" x="0px" y="0px" viewBox="0 0 512 512" style="enable-background:new 0 0 512 512;" xml:space="preserve" width="512px" height="512px" class=""><g><rect x="126.926" y="334.21" style="fill:#F9C38A;" width="61.81" height="50.079" data-original="#F9C38A"/><g>
	<circle style="fill:#FFD39F;" cx="259.542" cy="253.733" r="26.609" data-original="#FFD39F"/>
	<circle style="fill:#FFD39F;" cx="52.438" cy="253.733" r="26.609" data-original="#FFD39F"/>
	<path style="fill:#FFD39F;" d="M245.775,261.577c0,0.515,0,1.021-0.018,1.527c-0.813,48.471-40.356,87.506-89.015,87.506   c-49.175,0-89.033-39.859-89.033-89.033c0-3.127,0.163-6.217,0.479-9.262c4.636-44.829,42.507-79.772,88.554-79.772   C205.916,172.544,245.775,212.402,245.775,261.577z" data-original="#FFD39F"/>
</g><path style="fill:#F9C38A;" d="M245.775,261.577c0,0.515,0,1.021-0.018,1.527l-7.717-1.084  c-24.081-3.389-42.895-13.654-55.301-22.608c-1.428,8.223-2.331,17.404-2.612,24.153l-0.25,5.841  c-0.246,5.761-5.802,9.784-11.352,8.221l-5.621-1.583c-24.027-6.777-42.696-25.943-54.09-40.744l-14.283,23.71  c-2.548,4.229-7.954,5.733-12.32,3.427l-3.561-1.881c-3.786-2.006-7.32-4.979-10.464-8.241  c4.636-44.829,42.507-79.772,88.554-79.772C205.916,172.544,245.775,212.402,245.775,261.577z" data-original="#F9C38A"/><path style="fill:#ADACB2;" d="M238.437,234.55l1.491,14.052c-40.229-5.666-64.049-33.054-64.049-33.054  c-7.889,13.699-9.299,47.45-9.299,47.45c-35.259-9.94-58.356-52.979-58.356-52.979l-23.232,38.558  c-9.615-5.088-18.686-21.93-18.686-21.93l-15.868,11.314c-3.994-17.214-4.121-35.585,0.605-52.672  c10.573-38.223,45.416-70.049,115.537-68.341c51.307,1.256,76.709,35.106,89.277,67.247c11.558,29.566,12.244,57.696,12.244,57.696  L238.437,234.55z" data-original="#ADACB2" class=""/><path style="fill:#8A8791;" d="M238.437,234.55l1.491,14.052c-40.229-5.666-64.049-33.054-64.049-33.054  c-7.889,13.699-9.299,47.45-9.299,47.45c-35.259-9.94-58.356-52.979-58.356-52.979l-23.232,38.558  c-9.615-5.088-18.686-21.93-18.686-21.93l-15.868,11.314c-1.599-6.886-2.575-13.943-2.874-21.027l15.756-9.152  c4.243-2.465,9.674-0.765,11.779,3.667c2.22,4.673,5.169,10.263,8.06,13.872l19.061-34.592c3.379-6.133,12.315-5.646,15.055,0.798  c6.442,15.154,18.284,36.689,36.93,48.511c0,0,1.779-23.202,12.701-40.757c2.993-4.81,9.817-5.343,13.48-1.021  c7.442,8.78,22.063,22.302,45.679,29.341l-0.208-2.128c-0.556-5.684,4.616-10.245,10.186-8.982l26.784,6.073  c0,0-0.316-12.94-4.13-30.497c8.838,26.503,9.407,49.826,9.407,49.826L238.437,234.55z" data-original="#8A8791" class=""/><path style="fill:#5CDB95" d="M296.728,475.212c7.365,0,12.021-7.85,8.559-14.351c-28.234-53.012-84.053-89.102-148.307-89.102  S36.908,407.849,8.674,460.861c-3.462,6.501,1.194,14.351,8.559,14.351H296.728z" data-original="#FF52A1" class="active-path" data-old_color="#FF52A1"/><path style="fill:#5CDB95" d="M300.805,474.33c-29.404-48.678-82.817-81.218-143.82-81.218c-61.012,0-114.426,32.539-143.83,81.218  c-4.835-2.223-7.247-8.277-4.482-13.473c28.238-53.006,84.055-89.097,148.312-89.097c64.247,0,120.064,36.091,148.303,89.097  C308.052,466.052,305.64,472.107,300.805,474.33z" data-original="#FF73AF" class="" data-old_color="#FF73AF"/><rect x="302.511" y="316.571" style="fill:#F9C38A;" width="69.538" height="56.338" data-original="#F9C38A"/><g>
	<circle style="fill:#FFD39F;" cx="451.717" cy="226.023" r="29.937" data-original="#FFD39F"/>
	<circle style="fill:#FFD39F;" cx="218.703" cy="226.023" r="29.937" data-original="#FFD39F"/>
	<path style="fill:#FFD39F;" d="M436.223,234.854c0,0.58,0,1.149-0.02,1.718c-0.915,54.533-45.404,98.453-100.15,98.453   c-55.326,0-100.171-44.845-100.171-100.171c0-3.518,0.183-6.995,0.539-10.421c5.216-50.437,47.824-89.75,99.632-89.75   C391.378,134.683,436.223,179.528,436.223,234.854z" data-original="#FFD39F"/>
</g><path style="fill:#F9C38A;" d="M436.223,234.854c0,0.58,0,1.149-0.02,1.718l-8.682-1.22c-27.094-3.813-48.261-15.362-62.219-25.436  c-1.606,9.252-2.623,19.58-2.938,27.175l-0.281,6.572c-0.277,6.481-6.528,11.008-12.773,9.25l-6.325-1.781  c-27.033-7.625-48.037-29.188-60.857-45.841l-16.07,26.676c-2.866,4.758-8.949,6.45-13.861,3.856l-4.006-2.117  c-4.26-2.257-8.235-5.602-11.773-9.272c5.216-50.437,47.824-89.75,99.632-89.75C391.378,134.683,436.223,179.528,436.223,234.854z" data-original="#F9C38A"/><path style="fill:#ADACB2;" d="M427.968,204.446l1.677,15.809c-45.262-6.375-72.06-37.189-72.06-37.189  c-8.876,15.413-10.462,53.384-10.462,53.384c-39.67-11.184-65.655-59.606-65.655-59.606l-26.138,43.381  c-10.818-5.724-21.024-24.674-21.024-24.674l-17.852,12.729c-4.494-19.367-4.636-40.036,0.681-59.26  c11.895-43.005,51.096-78.811,129.989-76.89c57.725,1.413,86.303,39.497,100.445,75.66c13.003,33.265,13.776,64.913,13.776,64.913  L427.968,204.446z" data-original="#ADACB2" class=""/><path style="fill:#8A8791;" d="M427.968,204.446l1.677,15.809c-45.262-6.375-72.06-37.189-72.06-37.189  c-8.876,15.413-10.462,53.384-10.462,53.384c-39.67-11.184-65.655-59.606-65.655-59.606l-26.138,43.381  c-10.818-5.724-21.024-24.674-21.024-24.674l-17.852,12.729c-1.799-7.747-2.898-15.687-3.233-23.657l17.725-10.297  c4.774-2.773,10.884-0.861,13.253,4.126c2.498,5.257,5.816,11.546,9.068,15.607l21.445-38.919c3.802-6.9,13.856-6.352,16.937,0.898  c7.248,17.049,20.571,41.278,41.55,54.579c0,0,2.002-26.105,14.29-45.856c3.367-5.412,11.045-6.011,15.166-1.149  c8.373,9.878,24.823,25.092,51.393,33.012l-0.234-2.394c-0.625-6.395,5.194-11.526,11.46-10.106l30.135,6.833  c0,0-0.356-14.559-4.646-34.312c9.943,29.818,10.584,56.058,10.584,56.058L427.968,204.446z" data-original="#8A8791" class=""/><path style="fill:#05386B" d="M493.55,475.212c8.287,0,13.525-8.832,9.63-16.146c-31.766-59.643-94.566-100.248-166.858-100.248  S201.23,399.422,169.464,459.066c-3.895,7.314,1.343,16.146,9.63,16.146L493.55,475.212L493.55,475.212z" data-original="#00D8DE" class="" data-old_color="#00D8DE"/><path style="fill:#05386B" d="M498.137,474.22c-33.082-54.767-93.176-91.376-161.81-91.376c-68.644,0-128.739,36.61-161.82,91.376  c-5.439-2.501-8.154-9.313-5.043-15.159c31.77-59.637,94.569-100.242,166.863-100.242c72.284,0,135.083,40.605,166.853,100.242  C506.291,464.907,503.577,471.719,498.137,474.22z" data-original="#00F7FD" class="" data-old_color="#00F7FD"/><circle style="fill:#05386B" cx="446.037" cy="90.497" r="53.998" data-original="#00D8DE" class="" data-old_color="#00D8DE"/><path d="M116.164,252.274c-10.75-0.128-18.369,7.996-19.202,8.919c-2.777,3.074-2.557,7.84,0.517,10.616  c1.441,1.302,3.244,1.945,5.038,1.945c2.034,0,4.059-0.827,5.534-2.459c1.066-1.139,4.611-4.042,8.037-4.021  c0.794,0.014,3.21,0.057,6.542,3.876c2.723,3.122,7.46,3.444,10.582,0.723c3.122-2.723,3.445-7.46,0.723-10.582  C127.496,253.91,120.717,252.313,116.164,252.274z" data-original="#000000" class=""/><path d="M145.47,433.808h22.876c4.142,0,7.5-3.358,7.5-7.5s-3.358-7.5-7.5-7.5H145.47c-4.142,0-7.5,3.358-7.5,7.5  S141.328,433.808,145.47,433.808z" data-original="#000000" class=""/><path d="M290.391,225.325c-0.067-0.001-0.134-0.001-0.201-0.001c-11.578,0-19.795,8.726-20.699,9.726  c-2.777,3.074-2.554,7.837,0.52,10.613c1.44,1.301,3.242,1.944,5.037,1.944c2.036,0,4.062-0.828,5.538-2.461  c1.271-1.364,5.521-4.872,9.735-4.821c2.714,0.044,5.351,1.576,8.06,4.682c2.723,3.122,7.461,3.445,10.582,0.723  c3.122-2.723,3.445-7.46,0.723-10.582C302.671,227.106,295.322,225.367,290.391,225.325z" data-original="#000000" class=""/><path d="M405.809,235.147c-7.013-8.041-14.362-9.78-19.291-9.823c-0.068-0.001-0.133-0.001-0.201-0.001  c-11.578,0-19.796,8.726-20.699,9.726c-2.777,3.074-2.536,7.816,0.538,10.593c3.073,2.777,7.816,2.536,10.593-0.538  c0.917-1.015,5.212-4.781,9.574-4.781c0.021,0,0.044,0,0.065,0c2.736,0.024,5.391,1.556,8.119,4.683  c1.483,1.7,3.563,2.57,5.655,2.57c1.749,0,3.505-0.608,4.927-1.848C408.208,243.007,408.532,238.269,405.809,235.147z" data-original="#000000" class=""/><path d="M509.799,455.541c-27.303-51.263-75.103-87.042-130.246-99.435v-22.767c29.797-13.215,52.525-39.56,60.787-71.656  c3.653,1.165,7.48,1.782,11.378,1.782c20.643,0,37.437-16.795,37.437-37.437c0-15.068-8.838-28.366-22.371-34.28  c-1.66-11.068-4.649-25.505-10.018-40.711c28.812-5.093,50.772-30.294,50.772-60.544c0-31.588-23.662-57.883-55.04-61.164  c-4.123-0.422-7.808,2.56-8.239,6.68c-0.431,4.12,2.56,7.809,6.68,8.239c23.715,2.479,41.6,22.36,41.6,46.246  c0,25.64-20.86,46.501-46.501,46.501s-46.5-20.86-46.5-46.501c0-17.676,9.815-33.602,25.615-41.56  c3.7-1.863,5.188-6.373,3.325-10.072c-1.863-3.7-6.373-5.188-10.072-3.325c-15.254,7.683-26.28,20.984-31.125,36.702  c-12.213-4.704-25.617-7.261-39.981-7.609c-66.412-1.62-100.668,22.965-117.696,43.874c-4.067,4.993-7.633,10.344-10.688,15.991  c-14.973-9.507-32.479-14.566-52.154-15.046c-59.389-1.452-90.027,20.571-105.28,39.298c-16.066,19.726-23.427,45.674-21.147,73.098  c-13.017,4.954-22.003,17.602-22.003,31.887c0,18.807,15.301,34.108,34.108,34.108c3.755,0,7.425-0.624,10.91-1.8  c7.652,29.191,28.663,53.031,56.08,64.564v17.732c-17.145,3.747-33.688,10.03-48.979,18.717c-3.602,2.046-4.862,6.625-2.816,10.226  c1.382,2.432,3.917,3.796,6.528,3.796c1.255,0,2.528-0.316,3.698-0.98c23.992-13.632,51.351-20.836,79.12-20.836  c21.118,0,41.479,4.004,60.691,11.887c-17.304,13.118-32.51,29.168-44.846,47.692c-1.251-0.935-2.798-1.495-4.48-1.495H145.47  c-4.142,0-7.5,3.358-7.5,7.5s3.358,7.5,7.5,7.5h19.119c-0.59,1.06-1.172,2.126-1.744,3.2c-2.038,3.826-2.647,8.095-1.863,12.172  H17.233c-1.034,0-1.599-0.58-1.891-1.066c-0.248-0.413-0.583-1.255-0.049-2.259c10.125-19.01,23.752-35.563,40.505-49.198  c3.212-2.615,3.697-7.338,1.083-10.551c-2.614-3.212-7.338-3.696-10.551-1.083c-18.31,14.903-33.207,32.997-44.276,53.78  c-2.884,5.415-2.724,11.781,0.428,17.031c3.137,5.226,8.651,8.345,14.751,8.345h389.785c4.142,0,7.5-3.358,7.5-7.5  s-3.358-7.5-7.5-7.5H179.095c-1.687,0-2.561-1.037-2.932-1.655c-0.307-0.511-0.928-1.871-0.079-3.466  c31.627-59.383,93.027-96.273,160.238-96.273s128.61,36.89,160.238,96.274c0.85,1.595,0.228,2.955-0.079,3.465  c-0.371,0.618-1.245,1.655-2.931,1.655h-57.328c-4.142,0-7.5,3.358-7.5,7.5s3.358,7.5,7.5,7.5h57.328  c6.529,0,12.433-3.34,15.792-8.934C512.717,468.156,512.888,461.339,509.799,455.541z M336.047,327.53  c-51.098,0-92.667-41.575-92.667-92.677c0-4.527,0.333-9.027,0.981-13.474c2.359,2.185,4.867,4.099,7.462,5.473  c3.519,1.862,7.877,0.651,9.932-2.758l19.787-32.837c10.563,15.732,33.041,43.809,63.54,52.414c0.67,0.189,1.354,0.282,2.035,0.282  c1.563,0,3.106-0.489,4.4-1.426c1.858-1.345,2.998-3.467,3.094-5.759c0.333-7.884,1.959-27.146,5.78-40.557  c11.742,10.207,35.242,26.784,68.054,31.445c0.183,2.388,0.28,4.789,0.28,7.197C428.724,285.955,387.15,327.53,336.047,327.53z   M218.704,248.465c-12.373,0-22.437-10.066-22.437-22.437c0-8.484,4.819-16.081,12.049-19.877c0.26,1.276,0.534,2.552,0.831,3.83  c0.566,2.438,2.312,4.434,4.653,5.319c2.34,0.885,4.969,0.544,7.008-0.909l11.261-8.031c0.03,0.046,0.063,0.094,0.093,0.14  c-2.506,9.217-3.78,18.736-3.78,28.354c0,3.758,0.195,7.47,0.573,11.13C225.8,247.607,222.311,248.465,218.704,248.465z   M474.155,226.027c0,12.373-10.065,22.437-22.437,22.437c-3,0-5.929-0.605-8.651-1.743c0.43-3.899,0.657-7.858,0.657-11.87  c0-6.472-0.585-12.895-1.723-19.209l17.54,4.341c2.272,0.563,4.673,0.033,6.497-1.432c1.824-1.464,2.86-3.695,2.803-6.033  c-0.003-0.122-0.014-0.499-0.039-1.076C472.181,215.401,474.155,220.516,474.155,226.027z M241.234,117.974  c21.381-26.252,57.938-39.513,105.702-38.351c13.725,0.332,26.377,2.925,37.69,7.715c-0.053,1.046-0.088,2.096-0.088,3.153  c0,32.232,24.93,58.734,56.518,61.281c7.709,20.199,10.799,39.807,12.018,51.157l-23.305-5.767c-2.375-0.587-4.887,0.019-6.73,1.627  c-1.844,1.607-2.788,4.013-2.529,6.446l0.617,5.804c-36.049-8.412-57.665-32.644-57.888-32.897c-1.591-1.83-3.964-2.773-6.384-2.542  c-2.414,0.234-4.565,1.622-5.775,3.723c-6.792,11.8-9.637,33.64-10.771,46.649c-31.206-14.211-52.006-52.26-52.228-52.673  c-1.275-2.375-3.727-3.884-6.422-3.951c-2.684-0.051-5.219,1.318-6.61,3.626l-21.788,36.157c-2.299-2.347-4.588-5.214-6.639-8.085  c-0.006-0.01-0.014-0.019-0.02-0.028c-2.324-3.256-4.339-6.514-5.698-9.024c-1.021-1.894-2.807-3.258-4.903-3.745  c-2.097-0.489-4.301-0.051-6.053,1.199l-8.271,5.898C217.647,166.177,224.547,138.464,241.234,117.974z M73.112,158.219  c18.834-23.125,51.084-34.803,93.283-33.776c17.694,0.432,33.236,5.113,46.276,13.901c-5.951,16.123-8.226,33.985-6.594,52.438  c-10.408,3.735-18.549,11.923-22.39,22.064c-1.401-1.376-2.142-2.212-2.152-2.223c-1.591-1.829-3.969-2.775-6.383-2.543  c-2.414,0.234-4.565,1.621-5.775,3.722c-5.911,10.265-8.493,28.884-9.576,40.621c-26.876-12.866-44.778-45.594-44.971-45.952  c-1.275-2.375-3.727-3.884-6.422-3.951c-2.713-0.061-5.219,1.318-6.61,3.627l-18.802,31.209c-4.034-4.339-7.967-10.345-10.09-14.268  c-1.021-1.895-2.807-3.259-4.903-3.747c-2.096-0.489-4.301-0.051-6.054,1.199l-6.219,4.436  C52.579,199.785,58.69,175.927,73.112,158.219z M52.439,272.841c-10.537,0-19.108-8.572-19.108-19.108  c0-6.843,3.679-13.011,9.298-16.393c0.164,0.772,0.328,1.545,0.508,2.318c0.566,2.438,2.312,4.433,4.653,5.318  c2.34,0.884,4.969,0.544,7.008-0.909l8.279-5.904c-1.899,7.628-2.869,15.486-2.869,23.419c0,3.17,0.158,6.304,0.459,9.397  C58.113,272.199,55.32,272.841,52.439,272.841z M75.206,261.581c0-3.464,0.229-6.907,0.659-10.317  c1.799,1.549,3.682,2.911,5.623,3.938c3.519,1.862,7.877,0.649,9.931-2.759l16.912-28.07c9.743,14.251,29.547,38.321,56.214,45.839  c0.669,0.188,1.353,0.281,2.034,0.281c1.563,0,3.107-0.49,4.401-1.427c1.857-1.345,2.997-3.467,3.093-5.758  c0.285-6.741,1.633-22.887,4.759-34.615c0.861,0.73,1.791,1.493,2.773,2.275c1.189,8.971,5.556,16.952,11.942,22.758  c-6.348,2.35-10.542,6.796-11.146,7.465c-2.777,3.074-2.557,7.84,0.517,10.616c1.441,1.302,3.244,1.945,5.038,1.945  c2.034,0,4.059-0.827,5.534-2.459c1.055-1.127,4.516-4.021,7.932-4.021c0.035,0,0.07,0,0.105,0.001  c0.794,0.014,3.21,0.057,6.542,3.876c2.722,3.122,7.46,3.444,10.582,0.723c2.48-2.163,3.187-5.595,2.011-8.481  c3.784-0.195,7.471-0.953,10.976-2.244c1.35,5.361,3.098,10.565,5.22,15.575c-7.216,38.491-40.839,66.388-80.11,66.388  C111.783,343.109,75.206,306.536,75.206,261.581z M134.429,365.713v-10.213c7.165,1.702,14.636,2.608,22.313,2.608  c8.436,0,16.647-1.102,24.496-3.155v10.962c-7.971-1.095-16.063-1.657-24.259-1.657  C149.419,364.259,141.886,364.749,134.429,365.713z M196.239,368.651v-18.984c23.238-10.413,41.791-29.764,50.905-54.148  c11.768,17.194,28.386,30.814,47.869,38.877v21.295c-22.429,4.805-43.678,13.466-62.864,25.465  C220.565,375.649,208.572,371.47,196.239,368.651z M310.012,353.079v-13.74c8.341,2.079,17.06,3.19,26.036,3.19  c9.866,0,19.422-1.341,28.506-3.838v14.657c-9.264-1.337-18.692-2.03-28.231-2.03C327.442,351.319,318.656,351.918,310.012,353.079z  " data-original="#000000" class=""/><path d="M349.11,412.692h-25.738c-4.142,0-7.5,3.358-7.5,7.5s3.358,7.5,7.5,7.5h25.738c4.142,0,7.5-3.358,7.5-7.5  S353.251,412.692,349.11,412.692z" data-original="#000000" class=""/><path d="M349.11,433.542h-25.738c-4.142,0-7.5,3.358-7.5,7.5s3.358,7.5,7.5,7.5h25.738c4.142,0,7.5-3.358,7.5-7.5  S353.251,433.542,349.11,433.542z" data-original="#000000" class=""/><path d="M425.896,83.746c-4.142,0-7.5,3.358-7.5,7.5s3.358,7.5,7.5,7.5h12.641v12.642c0,4.142,3.358,7.5,7.5,7.5s7.5-3.358,7.5-7.5  V98.745h12.641c4.142,0,7.5-3.358,7.5-7.5s-3.358-7.5-7.5-7.5h-12.641V71.105c0-4.142-3.358-7.5-7.5-7.5s-7.5,3.358-7.5,7.5v12.641  H425.896z" data-original="#000000" class=""/></g> </svg>
