<?xml version="1.0"?>
<svg xmlns="http://www.w3.org/2000/svg" id="Capa_1" enable-background="new 0 0 512 512" height="512px" viewBox="0 0 512 512" width="512px" class=""><g><g><g><path d="m115.495 348.256 34.347-59.491h-86.014l34.347 59.491c3.849 6.667 13.471 6.667 17.32 0z" fill="#ffe07d" data-original="#FFE07D" class="" style="fill:#0B447C" data-old_color="#ffe07d"/></g><g><path d="m396.505 440.871-34.347-59.491h86.015l-34.347 59.491c-3.85 6.667-13.472 6.667-17.321 0z" fill="#ffd064" data-original="#FFD064" class="" style="fill:#05386B" data-old_color="#ffd064"/></g><g><path d="m214.619 305.205h-107.17c-55.228 0-100-44.772-100-100v-39.144c0-55.228 44.772-100 100-100h107.17c55.228 0 100 44.772 100 100v39.144c0 55.228-44.772 100-100 100z" fill="#ffe07d" data-original="#FFE07D" class="" style="fill:#0B447C" data-old_color="#ffe07d"/></g><path d="m273.613 85.316c12.104 16.538 19.256 36.93 19.256 58.994v39.144c0 55.228-44.772 100-100 100h-107.17c-22.065 0-42.456-7.152-58.994-19.256 18.193 24.858 47.58 41.006 80.744 41.006h107.17c55.228 0 100-44.772 100-100v-39.144c0-33.163-16.148-62.551-41.006-80.744z" fill="#ffd064" data-original="#FFD064" class="" style="fill:#05386B" data-old_color="#ffd064"/><g><circle cx="114.007" cy="185.633" fill="#ddeafb" r="67.789" data-original="#DDEAFB" class="active-path" style="fill:#EDF5E1" data-old_color="#ddeafb"/></g><g><circle cx="114.007" cy="178.739" fill="#524798" r="27.786" data-original="#524798" class="" style="fill:#5CDB95" data-old_color="#524798"/></g><g><path d="m129.987 202.616h-31.96c-16.749 0-31.253 9.574-38.366 23.542 12.361 16.549 32.102 27.264 54.346 27.264s41.986-10.715 54.346-27.264c-7.113-13.968-21.617-23.542-38.366-23.542z" fill="#524798" data-original="#524798" class="" style="fill:#5CDB95" data-old_color="#524798"/></g><g><path d="m404.551 397.054h-107.17c-55.228 0-100-44.772-100-100v-39.144c0-55.228 44.772-100 100-100h107.17c55.228 0 100 44.772 100 100v39.144c0 55.228-44.771 100-100 100z" fill="#ffd064" data-original="#FFD064" class="" style="fill:#05386B" data-old_color="#ffd064"/></g><path d="m463.569 177.182c12.114 16.542 19.273 36.943 19.273 59.018v39.144c0 55.228-44.772 100-100 100h-107.17c-22.075 0-42.475-7.158-59.018-19.273 18.194 24.844 47.574 40.982 80.727 40.982h107.17c55.229 0 100-44.772 100-100v-39.144c0-33.153-16.138-62.533-40.982-80.727z" fill="#ffc250" data-original="#FFC250" class="" style="fill:#06294B" data-old_color="#ffc250"/><g><path d="m115.495 348.256 34.347-59.491h-86.014l34.347 59.491c3.849 6.667 13.471 6.667 17.32 0z" fill="#ffd064" data-original="#FFD064" class="" style="fill:#05386B" data-old_color="#ffd064"/></g><g><path d="m396.505 440.871-34.347-59.491h86.015l-34.347 59.491c-3.85 6.667-13.472 6.667-17.321 0z" fill="#ffc250" data-original="#FFC250" class="" style="fill:#06294B" data-old_color="#ffc250"/></g><g><circle cx="303.94" cy="277.482" fill="#ecf4ff" r="67.789" data-original="#ECF4FF" class="" style="fill:#EDF5E1" data-old_color="#ecf4ff"/></g><g><circle cx="303.94" cy="270.587" fill="#5e54ac" r="27.786" data-original="#5E54AC" class="" style="fill:#5CDB95" data-old_color="#5e54ac"/></g><g><path d="m319.919 294.465h-31.96c-16.749 0-31.253 9.574-38.366 23.542 12.361 16.549 32.102 27.264 54.346 27.264s41.986-10.715 54.346-27.264c-7.112-13.969-21.616-23.542-38.366-23.542z" fill="#5e54ac" data-original="#5E54AC" class="" style="fill:#5CDB95" data-old_color="#5e54ac"/></g><g><path d="m114.007 125.293c9.824 0 19.571 2.411 28.188 6.973 3.636 1.924 8.144.538 10.069-3.098s.538-8.144-3.098-10.069c-10.757-5.694-22.914-8.705-35.159-8.705-41.487 0-75.238 33.751-75.238 75.238s33.752 75.238 75.238 75.238 75.238-33.751 75.238-75.238c0-13.935-3.84-27.546-11.106-39.361-2.155-3.504-6.742-4.599-10.247-2.443-3.504 2.155-4.598 6.743-2.443 10.247 5.822 9.467 8.899 20.379 8.899 31.557 0 9.635-2.282 18.743-6.316 26.831-6.376-7.338-14.697-12.653-24.006-15.328 3.349-5.467 5.217-11.826 5.217-18.397 0-19.429-15.807-35.236-35.235-35.236s-35.235 15.807-35.235 35.236c0 6.57 1.869 12.93 5.217 18.396-9.309 2.676-17.63 7.991-24.006 15.329-4.034-8.088-6.316-17.196-6.316-26.831-.001-33.27 27.068-60.339 60.339-60.339zm-15.98 84.772c3.897.44 7.921-1.47 8.951-5.47.89-3.231-.487-6.66-3.365-8.376-6.226-3.714-9.942-10.248-9.942-17.48 0-11.214 9.123-20.338 20.337-20.338s20.337 9.123 20.337 20.338c0 7.231-3.717 13.766-9.942 17.48-2.879 1.717-4.256 5.145-3.365 8.376 1.031 4 5.053 5.909 8.95 5.47 11.855 0 22.698 5.799 29.294 15.393-11.066 12.565-27.254 20.514-45.274 20.514-18.019 0-34.208-7.95-45.274-20.514 6.595-9.594 17.438-15.393 29.293-15.393z" data-original="#000000" class="" style="fill:#000000"/><path d="m405.229 150.46h-84.202c-3.379-24.155-14.914-46.383-32.933-63.185-19.824-18.485-45.677-28.664-72.797-28.664h-108.526c-58.874.001-106.771 47.898-106.771 106.771v40.501c0 43.473 25.984 82.247 66.197 98.782.927.381 1.886.562 2.83.562 2.93 0 5.709-1.741 6.892-4.618 1.565-3.805-.252-8.158-4.057-9.722-34.604-14.228-56.964-47.594-56.964-85.003v-40.501c0-50.659 41.214-91.872 91.872-91.872h108.527c45.115 0 83.464 33.205 90.648 76.95h-9.242c-58.874 0-106.771 47.897-106.771 106.771v40.501.024h-49.581c-2.661 0-5.12 1.42-6.451 3.725l-24.915 43.153c-.624 1.08-1.615 1.242-2.151 1.242-.535 0-1.526-.161-2.15-1.242l-11.023-19.095c-2.057-3.563-6.613-4.784-10.176-2.727s-4.784 6.613-2.726 10.176l11.024 19.094c3.141 5.441 8.768 8.69 15.052 8.691 6.283 0 11.911-3.249 15.052-8.691l22.764-39.429h46.328c7.281 51.834 51.913 91.849 105.723 91.849h70.203l23.207 40.195c3.142 5.442 8.769 8.691 15.053 8.691s11.911-3.249 15.052-8.691l28.552-49.452c12.565-5.61 23.791-13.503 33.4-23.488 2.853-2.964 2.762-7.68-.202-10.533-2.964-2.854-7.68-2.763-10.533.202-8.784 9.127-19.133 16.222-30.761 21.089-1.504.629-2.759 1.735-3.575 3.147l-29.784 51.586c-.623 1.08-1.614 1.241-2.149 1.241s-1.527-.161-2.151-1.242l-25.357-43.92c-1.331-2.305-3.79-3.725-6.451-3.725h-74.504c-50.659 0-91.872-41.214-91.872-91.872v-40.501c0-50.659 41.214-91.872 91.872-91.872h108.527c50.659 0 91.872 41.214 91.872 91.872v40.501c0 13.327-2.788 26.175-8.287 38.188-1.712 3.741-.068 8.162 3.673 9.873 3.74 1.712 8.161.068 9.874-3.673 6.395-13.973 9.638-28.908 9.638-44.389v-40.501c.001-58.872-47.896-106.769-106.77-106.769z" data-original="#000000" class="" style="fill:#000000"/><path d="m228.701 277.481c0 41.487 33.752 75.238 75.238 75.238 41.487 0 75.238-33.752 75.238-75.238s-33.752-75.238-75.238-75.238-75.238 33.752-75.238 75.238zm75.238 60.341c-18.019 0-34.208-7.95-45.274-20.515 6.596-9.595 17.439-15.393 29.294-15.393 3.897.44 7.921-1.47 8.951-5.47.89-3.231-.487-6.66-3.366-8.377-6.226-3.713-9.942-10.247-9.942-17.479 0-11.214 9.123-20.337 20.338-20.337 11.213 0 20.337 9.123 20.337 20.337 0 7.232-3.717 13.766-9.942 17.479-2.879 1.717-4.256 5.146-3.366 8.377 1.03 4 5.054 5.909 8.951 5.47 11.855 0 22.698 5.799 29.294 15.393-11.066 12.565-27.255 20.515-45.275 20.515zm60.341-60.341c0 9.635-2.282 18.743-6.316 26.831-6.376-7.338-14.697-12.653-24.006-15.328 3.348-5.467 5.217-11.827 5.217-18.397 0-19.429-15.806-35.235-35.235-35.235s-35.236 15.807-35.236 35.235c0 6.57 1.869 12.93 5.217 18.397-9.308 2.676-17.629 7.991-24.006 15.329-4.034-8.088-6.316-17.196-6.316-26.832 0-33.271 27.069-60.34 60.34-60.34 33.272.001 60.341 27.069 60.341 60.34z" data-original="#000000" class="" style="fill:#000000"/><path d="m461.199 252.807h-54.788c-4.114 0-7.449 3.335-7.449 7.449s3.335 7.449 7.449 7.449h54.788c4.114 0 7.449-3.335 7.449-7.449s-3.335-7.449-7.449-7.449z" data-original="#000000" class="" style="fill:#000000"/><path d="m461.199 287.258h-54.788c-4.114 0-7.449 3.335-7.449 7.449s3.335 7.449 7.449 7.449h54.788c4.114 0 7.449-3.335 7.449-7.449 0-4.113-3.335-7.449-7.449-7.449z" data-original="#000000" class="" style="fill:#000000"/></g></g></g> </svg>
