<?xml version="1.0"?>
<svg xmlns="http://www.w3.org/2000/svg" height="512px" viewBox="0 0 64 64" width="512px" class=""><g><g id="provider"><path d="m61.88 57-.46 2.56a2 2 0 0 1 -1.92 1.44h-19a2 2 0 0 1 -1.92-1.44l-.46-2.56h9.88v1h4v-1z" fill="#c6c5ca" data-original="#C6C5CA"/><path d="m60 45v12h-8v1h-4v-1h-8v-12a2.006 2.006 0 0 1 2-2h16a2.006 2.006 0 0 1 2 2z" fill="#46f8ff" data-original="#46F8FF" class="" style="fill:#5CDB95" data-old_color="#46f8ff"/><path d="m61.88 57-.46 2.56a2 2 0 0 1 -1.92 1.44h-4a2 2 0 0 0 1.92-1.44l.46-2.56z" fill="#acabb1" data-original="#ACABB1" class=""/><path d="m60 45v12h-4v-12a2.006 2.006 0 0 0 -2-2h4a2.006 2.006 0 0 1 2 2z" fill="#00e7f0" data-original="#00E7F0" class="" style="fill:#8EE4AF" data-old_color="#00e7f0"/><path d="m54 24a5 5 0 0 1 -5 5h-34a5 5 0 0 1 0-10h1c-.28-.78-1-1.62-1-2.5a7.495 7.495 0 0 1 14.01-3.71 10 10 0 1 1 17.98 6.21h2.01a5 5 0 0 1 5 5z" fill="#57a4ff" data-original="#57A4FF" class="" style="fill:#05386B" data-old_color="#57a4ff"/><path d="m54 24a5 5 0 0 1 -5 5h-4a5 5 0 0 0 0-10h-2.01a9.992 9.992 0 0 0 -5.98-15.8 9.991 9.991 0 0 1 9.98 15.8h2.01a5 5 0 0 1 5 5z" fill="#2488ff" data-original="#2488FF" class="" style="fill:#0F569D" data-old_color="#2488ff"/><path d="m40 27v4l-1.98.49 1.05 1.75-2.83 2.83-1.75-1.05-.49 1.98h-4l-.49-1.98-1.75 1.05-2.83-2.83 1.05-1.75-1.98-.49v-4l1.98-.49-1.05-1.75 2.83-2.83 1.75 1.05.49-1.98h4l.49 1.98 1.75-1.05 2.83 2.83-1.05 1.75z" fill="#c0ab91" data-original="#C0AB91" class="active-path" style="fill:#0F569D" data-old_color="#c0ab91"/><path d="m40 31-1.98.49 1.05 1.75-2.83 2.83-1.75-1.05-.49 1.98h-4l-.49-1.98-1.75 1.05-1.21-1.21a12.484 12.484 0 0 0 8.45-4.86 12.048 12.048 0 0 0 2.28-7.03l1.79 1.79-1.05 1.75 1.98.49z" fill="#b39a7c" data-original="#B39A7C" class="" style="fill:#0F569D" data-old_color="#b39a7c"/><circle cx="32" cy="29" fill="#ffde55" r="3" data-original="#FFDE55" class="" style="fill:#379683" data-old_color="#ffde55"/><path d="m25.88 57-.46 2.56a2 2 0 0 1 -1.92 1.44h-19a2 2 0 0 1 -1.92-1.44l-.46-2.56h9.88v1h4v-1z" fill="#c6c5ca" data-original="#C6C5CA"/><path d="m24 45v12h-8v1h-4v-1h-8v-12a2.006 2.006 0 0 1 2-2h16a2.006 2.006 0 0 1 2 2z" fill="#46f8ff" data-original="#46F8FF" class="" style="fill:#5CDB95" data-old_color="#46f8ff"/><path d="m25.88 57-.46 2.56a2 2 0 0 1 -1.92 1.44h-4a2 2 0 0 0 1.92-1.44l.46-2.56z" fill="#acabb1" data-original="#ACABB1" class=""/><path d="m24 45v12h-4v-12a2.006 2.006 0 0 0 -2-2h4a2.006 2.006 0 0 1 2 2z" fill="#00e7f0" data-original="#00E7F0" class="" style="fill:#8EE4AF" data-old_color="#00e7f0"/><path d="m26.64 56.36a.987.987 0 0 0 -.76-.36h-.88v-11a3.009 3.009 0 0 0 -3-3h-16a3.009 3.009 0 0 0 -3 3v11h-.88a1 1 0 0 0 -.98 1.17l.46 2.56a.359.359 0 0 0 .02.11 3.021 3.021 0 0 0 2.88 2.16h19a3.021 3.021 0 0 0 2.88-2.16.359.359 0 0 0 .02-.11l.46-2.56a.986.986 0 0 0 -.22-.81zm-21.64-11.36a1 1 0 0 1 1-1h16a1 1 0 0 1 1 1v11h-7a1 1 0 0 0 -1 1h-2a1 1 0 0 0 -1-1h-7zm19.45 14.32a1.014 1.014 0 0 1 -.95.68h-19a1.014 1.014 0 0 1 -.95-.68l-.23-1.32h7.68a1 1 0 0 0 1 1h4a1 1 0 0 0 1-1h7.68z" data-original="#000000" class="" style="fill:#000000"/><path d="m62.642 56.358a1 1 0 0 0 -.767-.358h-.875v-11a3 3 0 0 0 -3-3h-16a3 3 0 0 0 -3 3v11h-.875a1 1 0 0 0 -.984 1.175l.455 2.56a.891.891 0 0 0 .024.105 3.016 3.016 0 0 0 2.88 2.16h19a3.016 3.016 0 0 0 2.88-2.16.891.891 0 0 0 .024-.105l.455-2.56a1 1 0 0 0 -.217-.817zm-21.642-11.358a1 1 0 0 1 1-1h16a1 1 0 0 1 1 1v11h-7a1 1 0 0 0 -1 1h-2a1 1 0 0 0 -1-1h-7zm19.446 14.323a1 1 0 0 1 -.946.677h-19a1 1 0 0 1 -.946-.677l-.236-1.323h7.682a1 1 0 0 0 1 1h4a1 1 0 0 0 1-1h7.682z" data-original="#000000" class="" style="fill:#000000"/><path d="m32 25a4 4 0 1 0 4 4 4 4 0 0 0 -4-4zm0 6a2 2 0 1 1 2-2 2 2 0 0 1 -2 2z" data-original="#000000" class="" style="fill:#000000"/><path d="m49 18h-.21a10.792 10.792 0 0 0 1.21-5 11 11 0 0 0 -21.67-2.67 8.488 8.488 0 0 0 -14.33 6.17 3.507 3.507 0 0 0 .4 1.53 6 6 0 0 0 .6 11.97h8v1a1 1 0 0 0 .76.97l.67.17-.36.59a1 1 0 0 0 .15 1.22l2.83 2.83a1.012 1.012 0 0 0 1.22.15l.59-.36.17.67a1 1 0 0 0 .97.76h4a1 1 0 0 0 .97-.76l.17-.67.59.36a1.014 1.014 0 0 0 1.22-.15l2.83-2.83a1 1 0 0 0 .15-1.22l-.36-.59.67-.17a1 1 0 0 0 .76-.97v-1h8a6 6 0 0 0 0-12zm-10 12.22-1.22.3a1.007 1.007 0 0 0 -.68.59.989.989 0 0 0 .07.9l.64 1.08-1.72 1.72-1.08-.65a1.019 1.019 0 0 0 -.9-.06 1.007 1.007 0 0 0 -.59.68l-.3 1.22h-2.44l-.3-1.22a1.007 1.007 0 0 0 -.59-.68 1.019 1.019 0 0 0 -.9.06l-1.08.65-1.72-1.72.64-1.08a.989.989 0 0 0 .07-.9 1.007 1.007 0 0 0 -.68-.59l-1.22-.3v-2.44l1.22-.3a1.007 1.007 0 0 0 .68-.59.989.989 0 0 0 -.07-.9l-.64-1.08 1.72-1.72 1.08.64a.989.989 0 0 0 .9.07 1.007 1.007 0 0 0 .59-.68l.3-1.22h2.44l.3 1.22a1.007 1.007 0 0 0 .59.68.989.989 0 0 0 .9-.07l1.08-.64 1.72 1.72-.64 1.08a.989.989 0 0 0 -.07.9 1.007 1.007 0 0 0 .68.59l1.22.3zm10-2.22h-8v-1a1 1 0 0 0 -.76-.97l-.67-.17.36-.59a1 1 0 0 0 -.15-1.22l-2.83-2.83a1.014 1.014 0 0 0 -1.22-.15l-.59.36-.17-.67a1 1 0 0 0 -.97-.76h-4a1 1 0 0 0 -.97.76l-.17.67-.59-.36a1.014 1.014 0 0 0 -1.22.15l-2.83 2.83a1 1 0 0 0 -.15 1.22l.36.59-.67.17a1 1 0 0 0 -.76.97v1h-8a4 4 0 0 1 0-8h1a1.014 1.014 0 0 0 .82-.42 1.035 1.035 0 0 0 .12-.92 6.909 6.909 0 0 0 -.47-.99 3.068 3.068 0 0 1 -.47-1.17 6.492 6.492 0 0 1 12.14-3.21 1 1 0 0 0 1.87-.48 9 9 0 1 1 16.18 5.59 1 1 0 0 0 .8 1.6h2.01a4 4 0 0 1 0 8z" data-original="#000000" class="" style="fill:#000000"/><path d="m42 32h2v2h-2z" data-original="#000000" class="" style="fill:#000000"/><path d="m51 40v-7a1 1 0 0 0 -1-1h-4v2h3v6z" data-original="#000000" class="" style="fill:#000000"/><path d="m20 32h2v2h-2z" data-original="#000000" class="" style="fill:#000000"/><path d="m18 34v-2h-4a1 1 0 0 0 -1 1v7h2v-6z" data-original="#000000" class="" style="fill:#000000"/><path d="m44 13h2a7.008 7.008 0 0 0 -7-7v2a5.006 5.006 0 0 1 5 5z" data-original="#000000" class="" style="fill:#000000"/><path d="m18.03 15.976 1.987.232a2.5 2.5 0 0 1 2.483-2.208v-2a4.5 4.5 0 0 0 -4.47 3.976z" data-original="#000000" class="" style="fill:#000000"/></g></g> </svg>
