<?xml version="1.0"?>
<svg xmlns="http://www.w3.org/2000/svg" id="Capa_1" enable-background="new 0 0 512 512" height="512px" viewBox="0 0 512 512" width="512px" class=""><g><g><g><g><path d="m489.809 488.339h-467.618c-8.114 0-14.691-6.578-14.691-14.691v-13.04c0-3.418 2.771-6.188 6.188-6.188h484.624c3.418 0 6.188 2.77 6.188 6.188v13.04c0 8.113-6.577 14.691-14.691 14.691z" fill="#c8c3ca" data-original="#C8C3CA" class=""/></g></g><g><g><path d="m454.771 192.193h-397.542c-10.099 0-18.286 8.187-18.286 18.286v243.941h434.113v-243.941c.001-10.099-8.186-18.286-18.285-18.286z" fill="#b1abb4" data-original="#B1ABB4" class=""/></g></g><g><g><path d="m70.943 454.42v-221.849c0-4.627 3.751-8.378 8.378-8.378h353.358c4.627 0 8.378 3.751 8.378 8.378v221.849z" fill="#f1f1f1" data-original="#F1F1F1" class="" style="fill:#8EE4AF" data-old_color="#f1f1f1"/></g></g><g><g><path d="m498.312 454.42h-30c3.418 0 6.188 2.77 6.188 6.188v13.04c0 8.114-6.577 14.691-14.691 14.691h30c8.114 0 14.691-6.578 14.691-14.691v-13.04c0-3.418-2.771-6.188-6.188-6.188z" fill="#b1abb4" data-original="#B1ABB4" class=""/></g></g><g><g><path d="m454.771 192.193h-30c10.099 0 18.286 8.187 18.286 18.286v243.941h30v-243.941c0-10.099-8.187-18.286-18.286-18.286z" fill="#a29aa5" data-original="#A29AA5" class=""/></g></g><g><g><path d="m432.679 224.193h-30c4.627 0 8.378 3.751 8.378 8.378v221.849h30v-221.849c0-4.627-3.751-8.378-8.378-8.378z" fill="#e3e0e4" data-original="#E3E0E4" class="active-path" style="fill:#8EE4AF" data-old_color="#e3e0e4"/></g></g><g><g><path d="m212.134 454.42h87.732v33.919h-87.732z" fill="#766d78" data-original="#766D78"/></g></g><g><g><path d="m269.866 454.42h30v33.919h-30z" fill="#655e67" data-original="#655E67" class=""/></g></g><g><g><path d="m381.704 108.223h-28.51c-3.88 0-7.026-3.146-7.026-7.026v-28.51c0-3.88 3.146-7.026 7.026-7.026h28.51c3.88 0 7.026 3.146 7.026 7.026v28.51c0 3.88-3.145 7.026-7.026 7.026z" fill="#ff8086" data-original="#FF8086" class="" style="fill:#5CDB95" data-old_color="#ff8086"/></g></g><g><g><path d="m158.805 128.223h-28.51c-3.88 0-7.026-3.146-7.026-7.026v-28.51c0-3.88 3.146-7.026 7.026-7.026h28.51c3.88 0 7.026 3.146 7.026 7.026v28.51c0 3.88-3.145 7.026-7.026 7.026z" fill="#ff8086" data-original="#FF8086" class="" style="fill:#5CDB95" data-old_color="#ff8086"/></g></g><g><g><path d="m270.255 66.223h-28.51c-3.88 0-7.026-3.146-7.026-7.026v-28.51c0-3.88 3.146-7.026 7.026-7.026h28.51c3.88 0 7.026 3.146 7.026 7.026v28.51c0 3.88-3.146 7.026-7.026 7.026z" fill="#ffe07d" data-original="#FFE07D" class="" style="fill:#05386B" data-old_color="#ffe07d"/></g></g><g><g><path d="m270.255 144.488h-28.51c-3.88 0-7.026-3.146-7.026-7.026v-28.51c0-3.88 3.146-7.026 7.026-7.026h28.51c3.88 0 7.026 3.146 7.026 7.026v28.51c0 3.881-3.146 7.026-7.026 7.026z" fill="#ffe07d" data-original="#FFE07D" class="" style="fill:#05386B" data-old_color="#ffe07d"/></g></g><g><g><path d="m270.255 306.583h-28.51c-3.88 0-7.026-3.146-7.026-7.026v-28.51c0-3.88 3.146-7.026 7.026-7.026h28.51c3.88 0 7.026 3.146 7.026 7.026v28.51c0 3.881-3.146 7.026-7.026 7.026z" fill="#ff8086" data-original="#FF8086" class="" style="fill:#5CDB95" data-old_color="#ff8086"/></g></g><g><g><path d="m270.255 390.849h-28.51c-3.88 0-7.026-3.146-7.026-7.026v-28.51c0-3.88 3.146-7.026 7.026-7.026h28.51c3.88 0 7.026 3.146 7.026 7.026v28.51c0 3.881-3.146 7.026-7.026 7.026z" fill="#ffe07d" data-original="#FFE07D" class="" style="fill:#05386B" data-old_color="#ffe07d"/></g></g><g><g><path d="m158.805 318.864h-28.51c-3.88 0-7.026-3.146-7.026-7.026v-28.51c0-3.88 3.146-7.026 7.026-7.026h28.51c3.88 0 7.026 3.146 7.026 7.026v28.51c0 3.881-3.145 7.026-7.026 7.026z" fill="#ffe07d" data-original="#FFE07D" class="" style="fill:#05386B" data-old_color="#ffe07d"/></g></g><g><g><path d="m158.805 397.35h-28.51c-3.88 0-7.026-3.146-7.026-7.026v-28.51c0-3.88 3.146-7.026 7.026-7.026h28.51c3.88 0 7.026 3.146 7.026 7.026v28.51c0 3.881-3.145 7.026-7.026 7.026z" fill="#ffe07d" data-original="#FFE07D" class="" style="fill:#05386B" data-old_color="#ffe07d"/></g></g><g><g><path d="m382.685 327.864h-28.51c-3.88 0-7.026-3.146-7.026-7.026v-28.51c0-3.88 3.146-7.026 7.026-7.026h28.51c3.88 0 7.026 3.146 7.026 7.026v28.51c0 3.881-3.145 7.026-7.026 7.026z" fill="#ffe07d" data-original="#FFE07D" class="" style="fill:#05386B" data-old_color="#ffe07d"/></g></g><g><path d="m498.312 446.92h-17.755v-236.441c0-14.219-11.568-25.786-25.786-25.786h-79.821v-68.97h6.755c8.01 0 14.526-6.516 14.526-14.526v-28.51c0-8.009-6.516-14.526-14.526-14.526h-28.509c-8.01 0-14.526 6.516-14.526 14.526v28.51c0 8.009 6.517 14.526 14.526 14.526h6.754v68.97h-96.45v-32.705h6.755c8.01 0 14.526-6.516 14.526-14.526v-28.51c0-8.01-6.516-14.526-14.526-14.526h-6.755v-20.703h6.755c8.01 0 14.526-6.516 14.526-14.526v-28.51c0-8.01-6.516-14.526-14.526-14.526h-28.51c-8.01 0-14.526 6.516-14.526 14.526v28.51c0 8.01 6.516 14.526 14.526 14.526h6.755v20.704h-6.755c-8.01 0-14.526 6.516-14.526 14.526v28.51c0 8.009 6.516 14.526 14.526 14.526h6.755v32.705h-96.449v-48.97h6.754c8.01 0 14.526-6.516 14.526-14.526v-28.51c0-8.009-6.517-14.526-14.526-14.526h-28.509c-8.01 0-14.526 6.516-14.526 14.526v28.51c0 8.009 6.516 14.526 14.526 14.526h6.755v48.97h-79.822c-14.218 0-25.786 11.567-25.786 25.786v124.12c0 4.142 3.358 7.5 7.5 7.5s7.5-3.358 7.5-7.5v-124.121c0-5.947 4.839-10.786 10.786-10.786h191.271v17h-169.179c-8.755 0-15.878 7.123-15.878 15.878v214.349h-17v-82.32c0-4.142-3.358-7.5-7.5-7.5s-7.5 3.358-7.5 7.5v82.32h-17.755c-7.547 0-13.688 6.14-13.688 13.688v13.04c0 12.236 9.955 22.191 22.191 22.191h332.435c4.142 0 7.5-3.358 7.5-7.5s-3.358-7.5-7.5-7.5h-47.259v-18.919h189.633v11.728c0 3.965-3.226 7.191-7.191 7.191h-105.184c-4.142 0-7.5 3.358-7.5 7.5s3.358 7.5 7.5 7.5h105.184c12.236 0 22.191-9.955 22.191-22.191v-13.04c0-7.548-6.141-13.688-13.688-13.688zm-144.644-373.759h27.562v27.562h-27.562zm-111.449-42h27.562v27.562h-27.562zm0 78.266h27.562v27.562h-27.562zm-111.449-16.266h27.561v27.562h-27.561zm324 106.532c5.947 0 10.786 4.838 10.786 10.786v236.441h-17v-214.349c0-8.755-7.123-15.878-15.878-15.878h-57.729v-17zm-191.27 0h96.449v17h-96.449zm-185.057 32.878c0-.484.394-.878.878-.878h169.179v24.829h-6.755c-8.01 0-14.526 6.516-14.526 14.526v28.51c0 8.009 6.516 14.526 14.526 14.526h28.51c8.01 0 14.526-6.516 14.526-14.526v-28.51c0-8.009-6.516-14.526-14.526-14.526h-6.755v-24.829h96.449v18.841c0 4.142 3.358 7.5 7.5 7.5s7.5-3.358 7.5-7.5v-18.841h57.729c.484 0 .878.394.878.878v214.349h-355.113zm191.338 38.951v27.561h-27.562v-27.561zm-254.781 202.126v-11.728h189.634v18.919h-182.443c-3.965 0-7.191-3.226-7.191-7.191zm277.366 7.191h-72.732v-18.919h72.732z" data-original="#000000" class=""/><path d="m270.255 340.788h-28.51c-8.01 0-14.526 6.516-14.526 14.526v28.51c0 8.01 6.516 14.526 14.526 14.526h28.51c8.01 0 14.526-6.516 14.526-14.526v-28.51c0-8.01-6.516-14.526-14.526-14.526zm-.474 42.561h-27.562v-27.561h27.562z" data-original="#000000" class=""/><path d="m158.805 268.803h-28.509c-8.01 0-14.526 6.516-14.526 14.526v28.509c0 8.01 6.516 14.526 14.526 14.526h6.755v20.925h-6.755c-8.01 0-14.526 6.516-14.526 14.526v28.51c0 8.009 6.516 14.526 14.526 14.526h28.509c8.01 0 14.526-6.516 14.526-14.526v-28.51c0-8.01-6.517-14.526-14.526-14.526h-6.754v-20.925h6.754c8.01 0 14.526-6.516 14.526-14.526v-28.509c0-8.01-6.516-14.526-14.526-14.526zm-.474 121.047h-27.561v-27.562h27.561zm0-78.486h-27.561v-27.561h27.561z" data-original="#000000" class=""/><path d="m382.685 277.803h-28.509c-8.01 0-14.526 6.516-14.526 14.526v28.509c0 8.01 6.516 14.526 14.526 14.526h28.509c8.01 0 14.526-6.516 14.526-14.526v-28.509c0-8.01-6.516-14.526-14.526-14.526zm-.474 42.561h-27.561v-27.561h27.561z" data-original="#000000" class=""/></g></g></g> </svg>
